<?xml version="1.0"?>
<svg version="1.1" xmlns="http://www.w3.org/2000/svg" width="600" height="200" style=""><path fill="#" d="M56.976,115.84l0,9.68l-17.776,0l0,16.72l15.752,0l2.024-7.216l7.92,0l0,17.776l-45.936,0l0-7.48l6.6-2.64l0-41.36l-6.6-2.64l0-7.48l20.24-0.44l24.64,0l0,16.984l-7.92,0l-2.2-6.424l-14.52,0l0,14.52l17.776,0z M95.38888,142.68l0-41.36l-8.36,0l-2.2,8.36l-8.096,0l0-18.92l51.04,0l0,18.92l-8.184,0l-2.2-8.36l-8.36,0l0,41.36l8.36,2.64l0,7.48l-30.36,0l0-7.48z M138.28976,152.8l0-7.48l6.6-2.64l0-41.36l-6.6-2.64l0-7.48l26.84-0.44l0,7.92l-6.6,2.64l0,41.36l6.6,2.64l0,7.48l-26.84,0z M222.46264,165.736l-17.776-11.968c-16.192-1.056-25.08-11.88-25.08-31.504c0-20.064,11.44-32.56,29.656-32.56c18.04,0,27.984,11.616,27.984,31.24c0,15.224-6.952,26.488-18.304,30.888c5.28,3.344,11.616,8.448,16.984,8.448c2.816,0,8.096-3.08,8.096-3.08c1.584,2.288,3.08,4.664,4.664,7.04c0,0-9.24,6.16-14.96,6.16c-3.784,0-7.392-2.024-11.264-4.664z M208.82264,100.704c-9.856,0-14.696,6.336-14.696,21.12c0,14.08,4.4,21.12,13.816,21.12c9.944,0,14.784-6.864,14.784-21.56c0-14.08-4.224-20.68-13.904-20.68z M269.41152,101.32l0,27.72c0,10.12,2.904,14.08,11.528,14.08c9.328,0,11.352-5.016,11.352-15.4l0-26.4l-6.864-2.64l0-7.48l27.104-0.44l0,7.92l-6.6,2.64l0,26.4c0,16.984-6.512,26.136-25.432,26.136c-17.688,0-24.728-7.832-24.728-24.816l0-27.72l-6.512-2.64l0-7.48l27.016-0.44l0,7.92z M363.7044,115.84l0,9.68l-17.776,0l0,16.72l15.752,0l2.024-7.216l7.92,0l0,17.776l-45.936,0l0-7.48l6.6-2.64l0-41.36l-6.6-2.64l0-7.48l20.24-0.44l24.64,0l0,16.984l-7.92,0l-2.2-6.424l-14.52,0l0,14.52l17.776,0z M402.11728,142.68l0-41.36l-8.36,0l-2.2,8.36l-8.096,0l0-18.92l51.04,0l0,18.92l-8.184,0l-2.2-8.36l-8.36,0l0,41.36l8.36,2.64l0,7.48l-30.36,0l0-7.48z M461.03416,142.68l0-41.36l-8.36,0l-2.2,8.36l-8.096,0l0-18.92l51.04,0l0,18.92l-8.184,0l-2.2-8.36l-8.36,0l0,41.36l8.36,2.64l0,7.48l-30.36,0l0-7.48z M565.79904,145.32l0,7.48l-27.984,0l0-7.48l6.6-2.376l-2.112-6.424l-19.536,0l-2.2,6.336l6.864,2.464l0,7.48l-26.576,0l0-7.48l6.424-2.464l19.36-51.832l14.08-0.264l18.92,52.096z M539.39904,127.104l-6.6-20.856l-6.952,20.856l13.552,0z"/><path fill="#" d=""/></svg>
