<svg xmlns="http://www.w3.org/2000/svg" xmlns:xlink="http://www.w3.org/1999/xlink" version="1.1" x="0px" y="0px" viewBox="0 0 100 125" enable-background="new 0 0 100 100" xml:space="preserve"><path d="M93.414,67.162L93.414,67.162l-37.02-19.674v-3.709c0-0.005-0.003-0.01-0.003-0.016s0.003-0.01,0.003-0.016  c0-0.552-0.447-1-1-1H51v-4.503c0-0.002,0.001-0.003,0.001-0.005c0-0.552-0.448-1-1-1c-2.898,0-5.257-2.358-5.257-5.256  c0-2.898,2.358-5.257,5.257-5.257s5.256,2.358,5.256,5.257c0,0.552,0.447,1,1,1s1-0.448,1-1c0-4.001-3.255-7.257-7.256-7.257  c-4.001,0-7.257,3.255-7.257,7.257c0,3.661,2.728,6.688,6.256,7.179v3.585h-4.396c-0.552,0-1,0.448-1,1  c0,0.005,0.003,0.01,0.003,0.016s-0.003,0.01-0.003,0.016v3.71L6.588,67.161c-0.001,0.001-0.002,0.001-0.002,0.001  c-3.766,1.968-5.456,3.862-5.021,5.633c0.386,1.575,2.385,2.479,5.484,2.479h85.903c3.099,0,5.098-0.903,5.484-2.478  C98.87,71.025,97.181,69.13,93.414,67.162z M96.493,72.318c-0.073,0.3-1.067,0.955-3.542,0.955H7.048  c-2.475,0-3.468-0.655-3.542-0.955C3.429,72,3.996,70.771,7.511,68.936c0.001-0.001,0.002-0.002,0.003-0.003  c0.001,0,0.002-0.001,0.003-0.001l37.555-19.96c0.042-0.022,0.068-0.059,0.105-0.086c0.058-0.042,0.115-0.081,0.162-0.133  c0.043-0.048,0.073-0.103,0.106-0.157c0.033-0.055,0.066-0.106,0.089-0.167c0.024-0.066,0.031-0.134,0.041-0.204  c0.006-0.046,0.027-0.087,0.027-0.135v-3.342h4.242c0.053,0.008,0.1,0.031,0.155,0.031s0.102-0.023,0.155-0.031h4.24v3.342  c0,0.047,0.021,0.087,0.027,0.133c0.01,0.071,0.017,0.14,0.041,0.207c0.022,0.061,0.056,0.112,0.088,0.166  c0.033,0.055,0.063,0.11,0.107,0.158c0.047,0.053,0.104,0.091,0.161,0.132c0.037,0.027,0.063,0.064,0.105,0.087l37.557,19.96  c0.001,0.001,0.003,0.001,0.004,0.002c0.001,0,0.002,0.001,0.003,0.002C96.004,70.771,96.571,72,96.493,72.318z"/><text x="0" y="115" fill="#000000" font-size="5px" font-weight="bold" font-family="'Helvetica Neue', Helvetica, Arial-Unicode, Arial, Sans-serif">Created by Noura Mbarki</text><text x="0" y="120" fill="#000000" font-size="5px" font-weight="bold" font-family="'Helvetica Neue', Helvetica, Arial-Unicode, Arial, Sans-serif">from the Noun Project</text></svg>